<svg xmlns="http://www.w3.org/2000/svg" viewBox="0 0 88.32 88.32"><defs><style>.cls-1,.cls-2,.cls-3,.cls-4{fill:none;stroke:#d4a757;}.cls-1,.cls-3,.cls-4{stroke-linecap:round;stroke-linejoin:round;}.cls-1{stroke-width:0.45px;}.cls-2{stroke-miterlimit:10;stroke-width:2.59px;}.cls-3{stroke-width:1.94px;}.cls-4{stroke-width:1.3px;}</style></defs><title>資產 29</title><g id="圖層_2" data-name="圖層 2"><g id="圖層_2-2" data-name="圖層 2"><circle class="cls-1" cx="44.16" cy="44.16" r="42.86"/><circle class="cls-2" cx="44.16" cy="44.16" r="42.86"/><rect class="cls-3" x="24.62" y="24.48" width="39.06" height="39.06" transform="translate(88.3 88.01) rotate(180)"/><line class="cls-4" x1="59.26" y1="70.85" x2="59.26" y2="63.54"/><line class="cls-4" x1="51.96" y1="70.85" x2="51.96" y2="63.79"/><line class="cls-4" x1="44.66" y1="70.85" x2="44.66" y2="63.79"/><line class="cls-4" x1="37.35" y1="70.85" x2="37.35" y2="63.79"/><line class="cls-4" x1="30.05" y1="70.85" x2="30.05" y2="63.79"/><line class="cls-4" x1="59.26" y1="24.26" x2="59.26" y2="16.94"/><line class="cls-4" x1="51.96" y1="24.26" x2="51.96" y2="16.94"/><line class="cls-4" x1="44.66" y1="24.26" x2="44.66" y2="16.94"/><line class="cls-4" x1="37.35" y1="24.26" x2="37.35" y2="16.94"/><line class="cls-4" x1="30.05" y1="24.26" x2="30.05" y2="16.94"/><line class="cls-4" x1="63.53" y1="58.61" x2="70.85" y2="58.61"/><line class="cls-4" x1="63.53" y1="51.31" x2="70.85" y2="51.31"/><line class="cls-4" x1="63.53" y1="44.01" x2="70.85" y2="44.01"/><line class="cls-4" x1="63.53" y1="36.7" x2="70.85" y2="36.7"/><line class="cls-4" x1="63.53" y1="29.4" x2="70.85" y2="29.4"/><line class="cls-4" x1="17.63" y1="58.61" x2="24.95" y2="58.61"/><line class="cls-4" x1="17.63" y1="51.31" x2="24.95" y2="51.31"/><line class="cls-4" x1="17.63" y1="44.01" x2="24.95" y2="44.01"/><line class="cls-4" x1="17.63" y1="36.7" x2="24.95" y2="36.7"/><line class="cls-4" x1="17.63" y1="29.4" x2="24.95" y2="29.4"/><polyline class="cls-4" points="30 63.54 30.1 51.31 37.35 51.31"/><path class="cls-4" d="M37.35,51.31a1.23,1.23,0,1,1,1.23,1.22A1.22,1.22,0,0,1,37.35,51.31Z"/><polyline class="cls-4" points="63.68 36.7 44.66 36.7 44.66 29.4"/><path class="cls-4" d="M43.43,28.18a1.23,1.23,0,1,1,1.23,1.22A1.23,1.23,0,0,1,43.43,28.18Z"/><line class="cls-4" x1="24.62" y1="44.01" x2="51.96" y2="44.01"/><path class="cls-4" d="M52,44a1.23,1.23,0,1,1,1.22,1.22A1.23,1.23,0,0,1,52,44Z"/><line class="cls-4" x1="37.35" y1="37.28" x2="37.35" y2="24.66"/><path class="cls-4" d="M36.13,38.51a1.23,1.23,0,1,1,1.22,1.22A1.23,1.23,0,0,1,36.13,38.51Z"/><polyline class="cls-4" points="63.68 51.31 52.42 51.31 52.42 56.43"/><path class="cls-4" d="M51.2,57.54a1.23,1.23,0,1,1,1.22,1.23A1.22,1.22,0,0,1,51.2,57.54Z"/></g></g></svg>