<svg xmlns="http://www.w3.org/2000/svg" viewBox="0 0 88.32 88.32"><defs><style>.cls-1,.cls-2,.cls-4{fill:none;}.cls-1,.cls-2,.cls-3,.cls-4{stroke:#d4a757;}.cls-1{stroke-miterlimit:10;stroke-width:2.59px;}.cls-2,.cls-3,.cls-4{stroke-linecap:round;stroke-linejoin:round;}.cls-2{stroke-width:1.94px;}.cls-3{fill:#040000;}.cls-3,.cls-4{stroke-width:0.91px;}.cls-5{font-size:3px;fill:#d4a757;font-family:PingFangTC-Semibold-B5pc-H, PingFang TC;font-weight:700;}</style></defs><title>資產 28</title><g id="圖層_2" data-name="圖層 2"><g id="圖層_2-2" data-name="圖層 2"><circle class="cls-1" cx="44.16" cy="44.16" r="42.86"/><path class="cls-2" d="M63.81,24.69c-2.67,0-4.82,2.61-4.82,5.83v8.73h-.07V22.33c0-3.21-2.15-5.82-4.82-5.82s-4.82,2.61-4.82,5.82V39.25h-.06V19.5c0-3.22-2.16-5.83-4.82-5.83s-4.82,2.61-4.82,5.83V39.25h-.06V22.33c0-3.21-2.16-5.82-4.82-5.82s-4.82,2.61-4.82,5.82v13c0-3.21-2.16-5.82-4.82-5.82s-4.82,2.61-4.82,5.82V52.8c0,.14,0,.28,0,.42.37,11.91,8.47,21.43,18.41,21.43H50.17c10.19,0,18.46-10,18.46-22.31V30.52C68.63,27.3,66.47,24.69,63.81,24.69Z"/><rect class="cls-3" x="25.83" y="46.47" width="34.12" height="5.91" transform="translate(13.23 -8.91) rotate(14)"/><polygon class="cls-4" points="62.44 55.81 58.73 56.43 60.16 50.69 63.04 52.84 66.27 53.69 65.58 56.45 62.44 55.81"/><path class="cls-4" d="M56.37,64.27,53,63.42l-6.16-1.54,1-4,6.15,1.53,3.43.86m-1,4,2.25-.44,2.79.69.57-2.3-2.79-.69-1.82-1.25"/><path class="cls-4" d="M45.19,57.91h2.14a0,0,0,0,1,0,0v3.26a0,0,0,0,1,0,0H45.19a.68.68,0,0,1-.68-.68v-1.9A.68.68,0,0,1,45.19,57.91Z" transform="translate(15.77 -9.34) rotate(14)"/><path class="cls-4" d="M65.91,55.14s9.52,2.59,8.85,6.69-13.07,1.58-13.07,1.58"/><text class="cls-5" transform="translate(36.6 48.86) rotate(14.41)">Spectra X2</text><line class="cls-2" x1="29.88" y1="34.59" x2="29.88" y2="39.32"/><path class="cls-2" d="M31,52.6s9.18,2.54,11,11.92"/></g></g></svg>