<svg xmlns="http://www.w3.org/2000/svg" viewBox="0 0 88.32 88.32"><defs><style>.cls-1,.cls-2{fill:none;stroke:#d4a757;stroke-miterlimit:10;}.cls-1{stroke-width:2.59px;}.cls-2{stroke-linecap:round;stroke-width:0.91px;}</style></defs><title>資產 30</title><g id="圖層_2" data-name="圖層 2"><g id="圖層_2-2" data-name="圖層 2"><circle class="cls-1" cx="44.16" cy="44.16" r="42.86"/><line class="cls-2" x1="4.81" y1="38.95" x2="4.81" y2="46.29"/><line class="cls-2" x1="7.62" y1="34.03" x2="7.62" y2="51.21"/><line class="cls-2" x1="10.43" y1="29.64" x2="10.43" y2="55.6"/><line class="cls-2" x1="13.25" y1="34.03" x2="13.25" y2="51.21"/><line class="cls-2" x1="16.06" y1="40.08" x2="16.06" y2="45.17"/><line class="cls-2" x1="18.87" y1="41.03" x2="18.87" y2="44.21"/><line class="cls-2" x1="21.68" y1="38.54" x2="21.68" y2="46.7"/><line class="cls-2" x1="24.49" y1="35.69" x2="24.49" y2="49.55"/><line class="cls-2" x1="27.3" y1="38.13" x2="27.3" y2="47.11"/><line class="cls-2" x1="30.11" y1="36.49" x2="30.11" y2="48.75"/><line class="cls-2" x1="32.92" y1="31.77" x2="32.92" y2="53.47"/><line class="cls-2" x1="35.73" y1="34.03" x2="35.73" y2="51.21"/><line class="cls-2" x1="38.54" y1="36.49" x2="38.54" y2="48.75"/><line class="cls-2" x1="41.35" y1="39.56" x2="41.35" y2="45.68"/><line class="cls-2" x1="58.21" y1="33.07" x2="58.21" y2="52.18"/><line class="cls-2" x1="61.02" y1="29.02" x2="61.02" y2="56.22"/><line class="cls-2" x1="63.83" y1="34.86" x2="63.83" y2="50.38"/><line class="cls-2" x1="66.65" y1="38.96" x2="66.65" y2="46.28"/><line class="cls-2" x1="69.46" y1="39.56" x2="69.46" y2="45.68"/><line class="cls-2" x1="44.16" y1="35.69" x2="44.16" y2="49.55"/><line class="cls-2" x1="46.97" y1="39.76" x2="46.97" y2="45.48"/><line class="cls-2" x1="49.78" y1="40.2" x2="49.78" y2="45.04"/><line class="cls-2" x1="52.59" y1="37.96" x2="52.59" y2="47.28"/><line class="cls-2" x1="55.4" y1="34.89" x2="55.4" y2="50.35"/><line class="cls-2" x1="69.46" y1="37.63" x2="69.46" y2="47.62"/><line class="cls-2" x1="83.51" y1="41.19" x2="83.51" y2="44.05"/><line class="cls-2" x1="80.7" y1="39.76" x2="80.7" y2="45.48"/><line class="cls-2" x1="77.89" y1="37.79" x2="77.89" y2="47.45"/><line class="cls-2" x1="75.08" y1="34.89" x2="75.08" y2="50.35"/><line class="cls-2" x1="72.27" y1="33.29" x2="72.27" y2="51.96"/></g></g></svg>