<svg xmlns="http://www.w3.org/2000/svg" xmlns:xlink="http://www.w3.org/1999/xlink" viewBox="0 0 96.92 88.32"><defs><style>.cls-1,.cls-2,.cls-4,.cls-5{fill:none;}.cls-2,.cls-4,.cls-5{stroke:#d4a757;stroke-miterlimit:10;}.cls-2{stroke-width:0.91px;}.cls-3{clip-path:url(#clip-path);}.cls-4{stroke-width:0.73px;}.cls-5{stroke-width:2.59px;}</style><clipPath id="clip-path"><path class="cls-1" d="M10.5,57.09s2.06-16.67,12.13-16.83c10.58-.17,10.47,15.32,16,15.18,5.09-.12,8.31-36.62,20.84-37.22s18.4,38.87,18.4,38.87Z"/></clipPath></defs><title>資產 31</title><g id="圖層_2" data-name="圖層 2"><g id="圖層_2-2" data-name="圖層 2"><path class="cls-2" d="M10.5,57.09s2.06-16.67,12.13-16.83c10.58-.17,10.47,15.32,16,15.18,5.09-.12,8.31-36.62,20.84-37.22s18.4,38.87,18.4,38.87"/><g class="cls-3"><line class="cls-4" x1="1.3" y1="14.41" x2="1.3" y2="70.96"/><line class="cls-4" x1="4.1" y1="14.41" x2="4.1" y2="70.96"/><line class="cls-4" x1="6.9" y1="14.41" x2="6.9" y2="70.96"/><line class="cls-4" x1="9.7" y1="14.41" x2="9.7" y2="70.96"/><line class="cls-4" x1="12.5" y1="14.41" x2="12.5" y2="70.96"/><line class="cls-4" x1="15.31" y1="14.41" x2="15.31" y2="70.96"/><line class="cls-4" x1="18.11" y1="14.41" x2="18.11" y2="70.96"/><line class="cls-4" x1="20.91" y1="14.41" x2="20.91" y2="70.96"/><line class="cls-4" x1="23.71" y1="14.41" x2="23.71" y2="70.96"/><line class="cls-4" x1="26.51" y1="14.41" x2="26.51" y2="70.96"/><line class="cls-4" x1="29.31" y1="14.41" x2="29.31" y2="70.96"/><line class="cls-4" x1="32.12" y1="14.41" x2="32.12" y2="70.96"/><line class="cls-4" x1="34.92" y1="14.41" x2="34.92" y2="70.96"/><line class="cls-4" x1="37.72" y1="14.41" x2="37.72" y2="70.96"/><line class="cls-4" x1="40.52" y1="14.41" x2="40.52" y2="70.96"/><line class="cls-4" x1="43.32" y1="14.41" x2="43.32" y2="70.96"/><line class="cls-4" x1="46.12" y1="14.41" x2="46.12" y2="70.96"/><line class="cls-4" x1="48.93" y1="14.41" x2="48.93" y2="70.96"/><line class="cls-4" x1="51.73" y1="14.41" x2="51.73" y2="70.96"/><line class="cls-4" x1="54.53" y1="14.41" x2="54.53" y2="70.96"/><line class="cls-4" x1="57.33" y1="14.41" x2="57.33" y2="70.96"/><line class="cls-4" x1="60.13" y1="14.41" x2="60.13" y2="70.96"/><line class="cls-4" x1="62.94" y1="14.41" x2="62.94" y2="70.96"/><line class="cls-4" x1="65.74" y1="14.41" x2="65.74" y2="70.96"/><line class="cls-4" x1="68.54" y1="14.41" x2="68.54" y2="70.96"/><line class="cls-4" x1="71.34" y1="14.41" x2="71.34" y2="70.96"/><line class="cls-4" x1="74.14" y1="14.41" x2="74.14" y2="70.96"/><line class="cls-4" x1="76.94" y1="14.41" x2="76.94" y2="70.96"/><line class="cls-4" x1="79.75" y1="14.41" x2="79.75" y2="70.96"/><line class="cls-4" x1="82.55" y1="14.41" x2="82.55" y2="70.96"/><line class="cls-4" x1="85.35" y1="14.41" x2="85.35" y2="70.96"/><line class="cls-4" x1="88.15" y1="14.41" x2="88.15" y2="70.96"/><line class="cls-4" x1="90.95" y1="14.41" x2="90.95" y2="70.96"/><line class="cls-4" x1="93.76" y1="14.41" x2="93.76" y2="70.96"/><line class="cls-4" x1="96.56" y1="14.41" x2="96.56" y2="70.96"/></g><circle class="cls-5" cx="44.16" cy="44.16" r="42.86"/></g></g></svg>